<svg xmlns="http://www.w3.org/2000/svg" fill="none" viewBox="0 0 501 86" height="86" width="501">
<path fill="#001A2D" d="M500 0H0V86H500V0Z"></path>
<path fill="white" d="M159.036 55.0864L160.234 51.4538C163.198 53.1703 167.559 53.9687 170.692 53.9687C175.472 53.9687 179.584 52.7711 179.584 48.6995C179.584 46.1048 177.109 45.5459 172.788 44.5879C166.98 43.5101 163.727 41.7936 163.727 38.3208C163.727 32.2931 169.984 28.8701 176.74 28.8701C180.153 28.8701 183.446 29.5088 186.21 30.9459L184.684 34.6183C181.76 33.1414 179.414 32.4628 176.45 32.4628C172.329 32.4628 168.177 33.7401 168.177 37.4126C168.177 39.4484 170.323 40.2069 174.644 41.125C180.652 42.2826 184.075 43.9991 184.075 47.8612C184.075 54.1982 177.608 57.5913 170.533 57.5913C166.042 57.5913 161.641 56.753 159.046 55.0764L159.036 55.0864Z"></path>
<path fill="white" d="M191.689 45.6363L195.232 29.2798H199.354L195.771 45.6363C194.783 50.0672 196.1 53.57 202.108 53.57C207.218 53.57 211.13 51.0951 212.357 45.6363L215.94 29.2798H220.021L216.439 45.6363C214.792 53.0511 209.064 57.6018 201.449 57.6018C192.677 57.6018 190.292 51.8535 191.689 45.6363Z"></path>
<path fill="white" d="M250.319 36.984C250.319 41.6943 246.737 48.3108 235.869 48.3108H228.953L227.017 57.2026H222.945L229.083 29.2798H239.791C246.337 29.2798 250.329 32.4333 250.329 36.974L250.319 36.984ZM236.158 44.798C243.693 44.798 246.168 40.6465 246.168 37.8223C246.168 34.7486 243.743 32.7926 239.332 32.7926H232.376L229.741 44.798H236.168H236.158Z"></path>
<path fill="white" d="M280.996 32.7926H262.963L261.147 41.0058H277.204L276.465 44.4786H260.408L258.392 53.6498H276.835L276.056 57.2026H253.572L259.71 29.2798H281.784L281.006 32.7926H280.996Z"></path>
<path fill="white" d="M301.165 47.1532L308.001 57.2026H302.982L296.226 47.3927H290.417L288.272 57.2026H284.2L290.338 29.2798H301.126C307.752 29.2798 311.704 32.3535 311.704 36.8143C311.704 40.7263 309.399 45.9057 301.165 47.1432V47.1532ZM297.713 43.8799C305.497 43.8799 307.512 40.4868 307.512 37.6127C307.512 34.7386 305.167 32.7826 300.676 32.7826H293.641L291.216 43.8699H297.722L297.713 43.8799Z"></path>
<path fill="white" d="M313.52 55.2459L315.336 49.4278C318.09 50.9846 322.95 51.9427 326.044 51.9427C329.507 51.9427 332.341 51.304 332.341 48.5496C332.341 46.8331 330.525 46.394 327.152 45.7154C321.014 44.6775 317.601 43.0409 317.601 39.2187C317.601 32.6023 324.477 28.8101 331.642 28.8101C335.554 28.8101 339.137 29.4487 342.021 30.8858L339.876 36.7139C336.582 35.2369 333.948 34.5583 331.024 34.5583C328.1 34.5583 325.295 35.197 325.295 37.7517C325.295 39.069 326.693 39.5481 330.195 40.2267C336.492 41.3045 340.075 43.1806 340.075 47.1625C340.075 54.0184 333.03 57.7308 325.585 57.7308C320.805 57.7308 316.404 56.9324 313.52 55.2559V55.2459Z"></path>
<path fill="white" d="M373.466 37.5828C373.466 42.5725 369.514 49.5882 358.107 49.5882H353.128L351.441 57.2026H344.355L350.493 29.2798H362.189C369.105 29.2798 373.476 32.593 373.476 37.5728L373.466 37.5828ZM358.846 43.8799C364.285 43.8799 366.221 40.9259 366.221 38.7304C366.221 36.4152 364.404 34.9781 361.201 34.9781H356.341L354.365 43.8699H358.856L358.846 43.8799Z"></path>
<path fill="white" d="M377.378 45.556C377.378 36.9037 384.334 28.8003 394.962 28.8003C403.604 28.8003 408.923 33.4707 408.923 40.8855C408.923 49.5378 401.968 57.6811 391.339 57.6811C382.737 57.6811 377.378 52.851 377.378 45.556ZM401.538 41.7737C401.538 37.3029 398.904 34.7182 394.373 34.7182C388.365 34.7182 384.693 39.7079 384.693 44.7676C384.693 49.0388 387.367 51.7433 391.898 51.7433C397.906 51.7433 401.528 46.8733 401.528 41.7737H401.538Z"></path>
<path fill="white" d="M433.164 47.8318L438.762 57.2026H430.649L425.46 48.5902H421.797L419.901 57.2026H412.815L418.953 29.2798H430.809C437.764 29.2798 442.046 32.5531 442.046 37.2934C442.046 41.0457 439.9 45.9456 433.154 47.8218L433.164 47.8318ZM427.475 43.0815C433.074 43.0815 434.8 40.6864 434.8 38.6506C434.8 36.4551 433.074 34.9781 429.821 34.9781H424.801L422.985 43.0715H427.475V43.0815Z"></path>
<path fill="white" d="M473.551 29.29L472.234 35.158H462.923L458.103 57.2128H451.017L455.798 35.158H446.656L447.934 29.29H473.541H473.551Z"></path>
<path fill="white" d="M471.655 55.2459L473.472 49.4278C476.226 50.9846 481.086 51.9427 484.18 51.9427C487.643 51.9427 490.477 51.304 490.477 48.5496C490.477 46.8331 488.66 46.394 485.287 45.7154C479.15 44.6775 475.737 43.0409 475.737 39.2187C475.737 32.6023 482.613 28.8101 489.778 28.8101C493.69 28.8101 497.273 29.4487 500.157 30.8858L498.011 36.7139C494.718 35.2369 492.083 34.5583 489.159 34.5583C486.235 34.5583 483.431 35.197 483.431 37.7517C483.431 39.069 484.828 39.5481 488.331 40.2267C494.628 41.3045 498.211 43.1806 498.211 47.1625C498.211 54.0184 491.165 57.7308 483.721 57.7308C478.94 57.7308 474.539 56.9324 471.655 55.2559V55.2459Z"></path>
<path fill="#55FF06" d="M144.037 16.0659C125.395 15.8264 110.046 17.4131 101.234 19.6885C83.6603 23.9397 72.064 31.2747 72.0041 39.6875C71.9542 46.6632 79.8381 53.0102 92.5121 57.5409C90.4364 54.7466 89.3187 51.7727 89.3386 48.709C89.3586 46.0744 90.2068 43.5396 91.7836 41.1245C93.2806 38.3303 96.0848 35.7156 99.9469 33.3704C108.749 27.5324 144.037 16.0659 144.037 16.0659Z"></path>
<path fill="#55FF06" d="M69 70.4648C87.6418 70.7043 102.99 69.1175 111.802 66.8422C129.376 62.5909 140.973 55.2559 141.032 46.8432C141.082 39.8675 133.198 33.5205 120.524 28.9897C122.6 31.784 123.718 34.7579 123.698 37.8217C123.678 40.4563 122.83 42.9911 121.253 45.4061C119.756 48.2004 116.952 50.815 113.09 53.1602C104.288 58.9983 69 70.4648 69 70.4648Z"></path>
</svg>
